<?xml version="1.0" encoding="UTF-8"?>
<svg id="Layer_1" data-name="Layer 1" xmlns="http://www.w3.org/2000/svg" viewBox="0 0 100 100">
  <defs>
    <style>
      .cls-1 {
        fill: #fff;
      }

      .cls-2 {
        fill: #d83471;
      }

      .cls-3 {
        fill: #024376;
      }
    </style>
  </defs>
  <path class="cls-2" d="M88.61,54.94l-.14.14-38.36,37.11L11.25,54.85h6.3l7.47,7.47c.66.66,1.64.93,2.55.68.91-.23,1.62-.94,1.88-1.85l8.06-28.94,5.46,47.16c.15,1.24,1.13,2.21,2.38,2.33.09,0,.19.02.28.02,1.14,0,2.15-.73,2.5-1.84l9.76-29.96,3.37,4.06c.51.62,1.25.97,2.05.97h25.3Z"/>
  <path class="cls-2" d="M97.59,34.84c0,5.68-2.11,10.91-5.09,15.27h-28.17l-5.23-6.31c-.62-.74-1.59-1.1-2.55-.91-.94.19-1.71.86-2.02,1.79l-7.89,24.27-5.6-48.3c-.15-1.25-1.17-2.24-2.44-2.33-1.25-.09-2.42.71-2.75,1.93l-10.05,36.05-5.48-5.48c-.49-.51-1.16-.79-1.87-.79H7.35c-3.03-4.42-4.94-9.46-4.94-15.17C2.41,19.9,14.5,7.81,29.42,7.81c8.24,0,15.62,3.69,20.58,9.51,4.96-5.82,12.33-9.51,20.58-9.51,14.93,0,27.01,12.09,27.01,27.03Z"/>
  <path class="cls-3" d="M11.25,54.85H2.41c-1.33,0-2.41-1.08-2.41-2.42s1.08-2.41,2.41-2.41h4.94c1.1,1.64,2.36,3.18,3.72,4.65l.19.19Z"/>
  <path class="cls-1" d="M92.5,50.11c-1.19,1.76-2.52,3.38-3.89,4.83h-25.3c-.8,0-1.54-.36-2.05-.97l-3.37-4.06-9.76,29.96c-.36,1.11-1.36,1.84-2.5,1.84-.09,0-.19-.02-.28-.02-1.25-.12-2.22-1.1-2.38-2.33l-5.46-47.16-8.06,28.94c-.26.91-.97,1.62-1.88,1.85-.91.25-1.88-.02-2.55-.68l-7.47-7.47h-6.3l-.19-.19c-1.36-1.47-2.62-3.01-3.72-4.65h11.1c.71,0,1.37.28,1.87.79l5.48,5.48,10.05-36.05c.32-1.22,1.5-2.02,2.75-1.93,1.27.09,2.28,1.08,2.44,2.33l5.6,48.3,7.89-24.27c.31-.93,1.08-1.61,2.02-1.79.96-.19,1.93.17,2.55.91l5.23,6.31h28.17Z"/>
  <path class="cls-3" d="M100,52.52c0,1.34-1.08,2.42-2.41,2.42h-8.98c1.37-1.45,2.7-3.07,3.89-4.83h5.09c1.33,0,2.41,1.08,2.41,2.41Z"/>
  <path class="cls-1" d="M7.73,41.68c-3.02-20.94,9.48-30.96,23.65-30.62-12.34,2.17-22.57,9.49-23.65,30.62Z"/>
</svg>