<?xml version="1.0" encoding="UTF-8"?>
<svg id="Layer_1" data-name="Layer 1" xmlns="http://www.w3.org/2000/svg" viewBox="0 0 400 100">
  <defs>
    <style>
      .cls-1 {
        fill: #fff;
      }

      .cls-2 {
        fill: #d83471;
      }

      .cls-3 {
        fill: #f77e48;
      }

      .cls-4 {
        fill: #024376;
      }
    </style>
  </defs>
  <path class="cls-2" d="M158.26,55.83c-.05.05-.1.11-.15.16l-45.46,43.98-46.03-44.25h7.45l8.86,8.85c.78.79,1.94,1.1,3.02.82,1.07-.28,1.93-1.12,2.23-2.19l9.55-34.31,6.48,55.87c.17,1.48,1.33,2.62,2.81,2.77.11.01.21.01.32.01,1.35,0,2.55-.85,2.98-2.17l11.55-35.49,3.99,4.81c.6.73,1.48,1.14,2.42,1.14h29.98Z"/>
  <path class="cls-2" d="M168.92,32.02c0,6.74-2.53,12.93-6.04,18.1h-33.39l-6.2-7.49c-.73-.88-1.88-1.29-3.01-1.08-1.12.22-2.04,1.03-2.4,2.12l-9.35,28.75-6.64-57.21c-.17-1.49-1.38-2.66-2.88-2.77-1.49-.12-2.87.84-3.27,2.28l-11.89,42.7-6.49-6.49c-.59-.6-1.38-.92-2.22-.92h-13.16c-3.57-5.24-5.85-11.21-5.85-17.99C56.13,14.33,70.46,0,88.15,0c9.76,0,18.5,4.37,24.37,11.26,5.87-6.89,14.61-11.26,24.38-11.26,17.69,0,32.02,14.33,32.02,32.02Z"/>
  <path class="cls-4" d="M66.62,55.72H25.36c-1.58,0-2.86-1.28-2.86-2.86,0-.78.32-1.5.84-2.01.52-.52,1.23-.84,2.02-.84h36.62c1.31,1.93,2.8,3.76,4.41,5.49l.23.22Z"/>
  <path class="cls-1" d="M162.88,50.12c-1.41,2.08-2.98,3.99-4.62,5.71h-29.98c-.94,0-1.82-.41-2.42-1.14l-3.99-4.81-11.55,35.49c-.43,1.32-1.63,2.17-2.98,2.17-.11,0-.21,0-.32-.01-1.48-.15-2.64-1.29-2.81-2.77l-6.48-55.87-9.55,34.31c-.3,1.07-1.16,1.91-2.23,2.19-1.08.28-2.24-.03-3.02-.82l-8.86-8.85h-7.45l-.23-.22c-1.61-1.73-3.1-3.56-4.41-5.49h13.16c.84,0,1.63.32,2.22.92l6.49,6.49,11.89-42.7c.4-1.44,1.78-2.4,3.27-2.28,1.5.11,2.71,1.28,2.88,2.77l6.64,57.21,9.35-28.75c.36-1.09,1.28-1.9,2.4-2.12,1.13-.21,2.28.2,3.01,1.08l6.2,7.49h33.39Z"/>
  <path class="cls-4" d="M205.39,50.12v5.71h-47.13c1.64-1.72,3.21-3.63,4.62-5.71h42.51Z"/>
  <g>
    <path class="cls-4" d="M196.35,72.46c-3.86,0-7.21-.81-10.05-2.42-2.84-1.61-5.02-3.8-6.54-6.57-1.52-2.77-2.28-5.9-2.28-9.4,0-4.09.83-7.57,2.49-10.46,1.66-2.88,3.83-5.1,6.51-6.64,2.68-1.54,5.52-2.32,8.52-2.32,2.32,0,4.51.48,6.57,1.43,2.07.95,3.89,2.26,5.48,3.92,1.59,1.66,2.85,3.58,3.78,5.76.93,2.18,1.4,4.5,1.4,6.95-.05,1.09-.48,1.98-1.29,2.66s-1.77,1.02-2.86,1.02h-26.02l-2.04-6.81h25l-1.5,1.36v-1.84c-.09-1.32-.56-2.5-1.4-3.54-.84-1.04-1.89-1.87-3.13-2.49-1.25-.61-2.58-.92-3.99-.92s-2.63.18-3.81.55c-1.18.36-2.2.98-3.07,1.84s-1.54,2.02-2.04,3.47c-.5,1.45-.75,3.29-.75,5.52,0,2.45.51,4.53,1.53,6.23,1.02,1.7,2.34,3,3.95,3.88,1.61.89,3.33,1.33,5.14,1.33,1.68,0,3.02-.14,4.02-.41,1-.27,1.81-.6,2.42-.99.61-.39,1.17-.72,1.67-.99.82-.41,1.59-.61,2.32-.61,1,0,1.83.34,2.49,1.02.66.68.99,1.48.99,2.38,0,1.23-.64,2.34-1.91,3.34-1.18,1-2.84,1.87-4.97,2.62-2.14.75-4.34,1.12-6.61,1.12Z"/>
    <path class="cls-4" d="M220.81,54.95c-1.18,0-2.17-.39-2.96-1.16-.8-.77-1.19-1.75-1.19-2.93s.4-2.15,1.19-2.9c.79-.75,1.78-1.12,2.96-1.12h11.85c1.18,0,2.17.4,2.96,1.19.79.8,1.19,1.78,1.19,2.96s-.4,2.08-1.19,2.83c-.8.75-1.78,1.12-2.96,1.12h-11.85Z"/>
    <path class="cls-4" d="M247.99,24.09c1.09,0,2.05.4,2.9,1.19.84.8,1.26,1.78,1.26,2.96v39.38c0,1.18-.43,2.17-1.29,2.96-.86.8-1.86,1.19-3,1.19-1.27,0-2.29-.4-3.07-1.19-.77-.79-1.16-1.78-1.16-2.96V28.24c0-1.18.41-2.17,1.23-2.96.82-.79,1.86-1.19,3.13-1.19ZM247.79,43.91h30.38v7.83h-30.38v-7.83ZM278.17,24.09c1.27,0,2.29.4,3.07,1.19.77.8,1.16,1.78,1.16,2.96v39.38c0,1.18-.4,2.17-1.19,2.96-.8.8-1.85,1.19-3.17,1.19-1.09,0-2.06-.4-2.9-1.19-.84-.79-1.26-1.78-1.26-2.96V28.24c0-1.18.43-2.17,1.29-2.96.86-.79,1.86-1.19,3-1.19Z"/>
    <path class="cls-4" d="M308.42,34.78l-14.71,34.61c-.32.86-.81,1.53-1.46,2.01-.66.48-1.37.72-2.15.72-1.23,0-2.14-.34-2.73-1.02-.59-.68-.89-1.52-.89-2.52,0-.41.07-.84.2-1.29l16.96-40.74c.36-.91.92-1.61,1.67-2.11.75-.5,1.56-.7,2.42-.61.82,0,1.58.24,2.28.72.7.48,1.21,1.15,1.53,2.01l16.76,39.92c.23.59.34,1.14.34,1.64,0,1.23-.4,2.2-1.19,2.93-.8.73-1.67,1.09-2.62,1.09-.82,0-1.56-.25-2.21-.75-.66-.5-1.17-1.18-1.53-2.04l-14.65-34.13,1.98-.41ZM295.82,61.08l3.75-7.83h18.39l1.29,7.83h-23.43Z"/>
    <path class="cls-4" d="M330.42,31.92c-1.18,0-2.17-.36-2.96-1.09-.8-.73-1.19-1.68-1.19-2.86s.4-2.12,1.19-2.83c.79-.7,1.78-1.06,2.96-1.06h30.25c1.18,0,2.17.36,2.96,1.09.79.73,1.19,1.68,1.19,2.86s-.4,2.12-1.19,2.83c-.8.7-1.78,1.06-2.96,1.06h-30.25ZM345.48,71.77c-1.27,0-2.32-.4-3.13-1.19-.82-.79-1.23-1.78-1.23-2.96V28.11h8.86v39.51c0,1.18-.42,2.17-1.26,2.96-.84.8-1.92,1.19-3.24,1.19Z"/>
    <path class="cls-4" d="M373.14,30.9c-1.54,0-2.63-.25-3.27-.75-.64-.5-.95-1.38-.95-2.66v-1.29c0-1.32.35-2.21,1.06-2.69.7-.48,1.78-.72,3.24-.72,1.59,0,2.7.25,3.34.75.64.5.95,1.39.95,2.66v1.29c0,1.32-.34,2.21-1.02,2.69-.68.48-1.79.72-3.34.72ZM377.29,67.62c0,1.18-.39,2.17-1.16,2.96-.77.8-1.75,1.19-2.93,1.19s-2.16-.4-2.93-1.19c-.77-.79-1.16-1.78-1.16-2.96v-28.14c0-1.18.39-2.17,1.16-2.96.77-.79,1.75-1.19,2.93-1.19s2.16.4,2.93,1.19c.77.8,1.16,1.78,1.16,2.96v28.14Z"/>
  </g>
  <g>
    <path class="cls-3" d="M140.17,84.54h5.93c.24,0,.44.08.61.24.17.16.25.36.25.6s-.08.43-.25.58c-.17.15-.37.22-.61.22h-5.18l.17-.29v3.84l-.15-.17h4.39c.24,0,.44.08.61.24.17.16.25.37.25.62s-.08.43-.25.58c-.17.15-.37.22-.61.22h-4.35l.12-.15v3.96l-.12-.14h5.12c.24,0,.44.08.61.25.17.17.25.36.25.57,0,.24-.08.44-.25.59-.17.15-.37.23-.61.23h-5.93c-.24,0-.45-.08-.62-.25-.17-.17-.26-.37-.26-.63v-10.25c0-.25.09-.46.26-.63.17-.17.38-.25.62-.25Z"/>
    <path class="cls-3" d="M153.42,87.37c.85,0,1.5.21,1.95.63.46.42.76.98.91,1.69l-.27-.09.12-.27c.15-.3.37-.6.68-.9.3-.3.67-.55,1.09-.75.42-.2.87-.3,1.35-.3.79,0,1.4.17,1.83.51.43.34.74.79.91,1.35.17.57.26,1.2.26,1.89v4.54c0,.25-.08.46-.24.63-.16.17-.37.25-.62.25s-.44-.08-.61-.25c-.17-.17-.25-.37-.25-.63v-4.52c0-.4-.05-.77-.16-1.1-.11-.33-.3-.6-.57-.8-.27-.2-.64-.3-1.11-.3s-.84.1-1.19.3c-.35.2-.62.47-.81.8-.19.33-.29.7-.29,1.1v4.52c0,.25-.08.46-.24.63-.16.17-.37.25-.62.25s-.46-.08-.62-.25c-.16-.17-.24-.37-.24-.63v-4.54c0-.4-.05-.77-.16-1.1-.11-.33-.29-.59-.56-.79-.26-.19-.63-.29-1.1-.29s-.84.1-1.18.29c-.34.19-.61.46-.8.79s-.28.7-.28,1.1v4.54c0,.25-.08.46-.25.63-.17.17-.37.25-.61.25s-.46-.08-.62-.25c-.16-.17-.24-.37-.24-.63v-7.27c0-.25.08-.46.24-.63.16-.17.37-.25.62-.25s.44.08.61.25c.17.17.25.37.25.63v1.01l-.33.19c.08-.25.21-.51.39-.77.18-.26.41-.5.69-.72.28-.22.59-.39.93-.53.34-.14.71-.21,1.11-.21Z"/>
    <path class="cls-3" d="M169.18,87.37c.8,0,1.51.2,2.13.6.62.4,1.12.95,1.48,1.64.37.69.55,1.49.55,2.41s-.18,1.72-.55,2.42c-.37.7-.86,1.25-1.47,1.65-.62.4-1.31.6-2.09.6-.43,0-.85-.07-1.23-.21-.39-.14-.73-.32-1.03-.54-.3-.22-.54-.46-.73-.71s-.31-.49-.35-.7l.46-.22v4.78c0,.25-.08.46-.25.63-.17.17-.37.25-.61.25s-.46-.08-.62-.25c-.16-.17-.24-.37-.24-.63v-10.73c0-.24.08-.45.24-.62.16-.17.37-.26.62-.26s.44.09.61.26c.17.17.25.38.25.62v1.18l-.27-.15c.03-.22.14-.44.33-.68.18-.23.41-.45.69-.66.28-.21.6-.37.96-.5.36-.13.73-.19,1.12-.19ZM169,88.95c-.55,0-1.03.13-1.43.4-.41.27-.72.63-.95,1.09-.23.46-.34.98-.34,1.58s.11,1.11.34,1.59c.23.47.55.85.95,1.11.41.27.88.4,1.43.4s1.01-.13,1.41-.4c.4-.27.72-.64.95-1.11.23-.47.35-1,.35-1.59s-.12-1.11-.35-1.57c-.23-.46-.55-.83-.95-1.1-.4-.27-.87-.4-1.41-.4Z"/>
    <path class="cls-3" d="M177.14,95.67c0,.25-.08.46-.25.63-.17.17-.37.25-.61.25s-.44-.08-.61-.25c-.17-.17-.25-.37-.25-.63v-10.93c0-.25.09-.46.26-.63.17-.17.38-.25.62-.25s.45.08.61.25c.15.17.23.37.23.63v10.93Z"/>
    <path class="cls-3" d="M188.15,92.03c0,.91-.2,1.72-.6,2.42-.4.7-.94,1.25-1.63,1.65-.69.4-1.46.6-2.31.6s-1.63-.2-2.31-.6c-.69-.4-1.23-.95-1.64-1.65-.41-.7-.61-1.51-.61-2.42s.2-1.74.61-2.44c.41-.7.95-1.26,1.64-1.66.69-.41,1.46-.61,2.31-.61s1.63.2,2.31.61c.69.41,1.23.96,1.63,1.66.4.7.6,1.52.6,2.44ZM186.44,92.03c0-.63-.13-1.17-.38-1.64-.25-.46-.59-.83-1.02-1.1s-.91-.4-1.43-.4-1.01.13-1.44.4c-.43.27-.78.63-1.03,1.1-.25.46-.38,1.01-.38,1.64s.13,1.14.38,1.61c.25.47.59.83,1.03,1.1.43.26.91.39,1.44.39s1-.13,1.43-.39c.43-.26.77-.63,1.02-1.1.25-.47.38-1.01.38-1.61Z"/>
    <path class="cls-3" d="M196.79,87.46c.25,0,.46.08.62.25.16.17.24.37.24.63v7.37c0,1.01-.19,1.82-.57,2.45-.38.63-.9,1.09-1.54,1.38-.65.29-1.37.44-2.18.44-.41,0-.82-.04-1.23-.11-.41-.07-.75-.18-1.01-.32-.27-.13-.47-.28-.58-.46-.11-.18-.13-.38-.05-.6.08-.27.22-.46.41-.56.19-.1.39-.11.6-.03.19.08.45.18.77.31.32.13.69.19,1.1.19.56,0,1.03-.09,1.42-.27.39-.18.68-.47.88-.86.2-.39.3-.89.3-1.51v-1.18l.27.41c-.18.38-.42.69-.72.94-.3.25-.65.45-1.05.58-.41.14-.85.21-1.35.21-.63,0-1.17-.14-1.62-.42-.45-.28-.8-.67-1.04-1.17s-.36-1.07-.36-1.71v-5.09c0-.25.08-.46.24-.63.16-.17.37-.25.62-.25s.44.08.61.25c.17.17.25.37.25.63v4.63c0,.75.17,1.31.5,1.65.33.35.82.52,1.47.52.43,0,.81-.09,1.13-.27.32-.18.57-.44.75-.76.18-.33.27-.71.27-1.14v-4.63c0-.25.08-.46.25-.63.17-.17.37-.25.61-.25Z"/>
    <path class="cls-3" d="M204.16,96.71c-.95,0-1.77-.2-2.47-.59-.7-.39-1.24-.94-1.62-1.63-.38-.69-.57-1.48-.57-2.37,0-1,.2-1.86.61-2.58.41-.71.93-1.26,1.59-1.65.65-.38,1.34-.57,2.07-.57.56,0,1.09.11,1.59.33.5.22.95.53,1.35.93s.71.86.93,1.39c.23.53.35,1.11.36,1.74-.01.23-.1.42-.27.57-.17.15-.37.22-.6.22h-6.67l-.41-1.46h6.44l-.33.31v-.43c-.02-.4-.15-.75-.39-1.05-.24-.3-.54-.54-.89-.7-.35-.17-.73-.25-1.11-.25-.34,0-.67.05-.99.16-.31.11-.59.28-.84.52-.25.24-.44.56-.58.95-.14.39-.21.88-.21,1.47,0,.63.13,1.18.39,1.65.26.47.62.83,1.06,1.09.45.26.94.39,1.47.39.42,0,.77-.04,1.05-.13.27-.09.5-.19.69-.32.18-.13.34-.25.48-.36.17-.1.34-.15.51-.15.21,0,.38.07.51.21.14.14.21.31.21.51,0,.25-.13.48-.38.69-.31.3-.73.56-1.28.79-.54.23-1.11.34-1.71.34Z"/>
    <path class="cls-3" d="M214.13,96.71c-.95,0-1.77-.2-2.47-.59-.7-.39-1.24-.94-1.62-1.63-.38-.69-.57-1.48-.57-2.37,0-1,.2-1.86.61-2.58.41-.71.93-1.26,1.59-1.65.65-.38,1.34-.57,2.07-.57.56,0,1.09.11,1.59.33.5.22.95.53,1.35.93.39.39.71.86.93,1.39.23.53.35,1.11.36,1.74-.01.23-.1.42-.27.57-.17.15-.37.22-.6.22h-6.67l-.41-1.46h6.44l-.33.31v-.43c-.02-.4-.15-.75-.39-1.05-.24-.3-.54-.54-.89-.7-.35-.17-.73-.25-1.11-.25-.34,0-.67.05-.99.16-.31.11-.59.28-.84.52-.25.24-.44.56-.58.95s-.21.88-.21,1.47c0,.63.13,1.18.39,1.65.26.47.62.83,1.06,1.09.45.26.94.39,1.47.39.42,0,.77-.04,1.05-.13s.5-.19.69-.32c.18-.13.34-.25.48-.36.17-.1.34-.15.51-.15.21,0,.38.07.51.21.14.14.21.31.21.51,0,.25-.13.48-.38.69-.31.3-.73.56-1.28.79-.54.23-1.11.34-1.71.34Z"/>
    <path class="cls-3" d="M225.79,84.54c.23,0,.43.08.61.25.18.17.27.37.27.63v10.25c-.01.25-.11.46-.28.63-.18.17-.39.25-.63.25-.26,0-.48-.08-.64-.25-.17-.17-.25-.37-.25-.63v-10.25c0-.25.09-.46.26-.63.17-.17.39-.25.67-.25ZM225.72,89.65h7.81l-.02,1.65h-7.81l.02-1.65ZM233.51,84.54c.27,0,.49.08.65.25.16.17.24.37.24.63v10.25c0,.25-.08.46-.25.63s-.39.25-.66.25c-.24,0-.45-.08-.62-.25-.17-.17-.26-.37-.26-.63v-10.25c0-.25.09-.46.27-.63.18-.17.39-.25.63-.25Z"/>
    <path class="cls-3" d="M241.19,96.71c-.95,0-1.77-.2-2.47-.59-.7-.39-1.24-.94-1.62-1.63-.38-.69-.57-1.48-.57-2.37,0-1,.2-1.86.61-2.58.41-.71.93-1.26,1.59-1.65.65-.38,1.34-.57,2.07-.57.56,0,1.09.11,1.59.33.5.22.95.53,1.35.93.39.39.71.86.93,1.39.23.53.35,1.11.36,1.74-.01.23-.1.42-.27.57-.17.15-.37.22-.6.22h-6.67l-.41-1.46h6.44l-.33.31v-.43c-.02-.4-.15-.75-.39-1.05-.24-.3-.54-.54-.89-.7-.35-.17-.73-.25-1.11-.25-.34,0-.67.05-.99.16-.31.11-.59.28-.84.52-.25.24-.44.56-.58.95s-.21.88-.21,1.47c0,.63.13,1.18.39,1.65.26.47.62.83,1.06,1.09.45.26.94.39,1.47.39.42,0,.77-.04,1.05-.13s.5-.19.69-.32c.18-.13.34-.25.48-.36.17-.1.34-.15.51-.15.21,0,.38.07.51.21.14.14.21.31.21.51,0,.25-.13.48-.38.69-.31.3-.73.56-1.28.79-.54.23-1.11.34-1.71.34Z"/>
    <path class="cls-3" d="M254.42,87.39c.25,0,.46.08.62.25.16.17.24.37.24.63v7.4c0,.25-.08.46-.24.63-.16.17-.37.25-.62.25s-.44-.08-.61-.25c-.17-.17-.25-.37-.25-.63v-1.23l.36.05c0,.21-.08.43-.25.69-.17.25-.39.49-.68.73-.29.23-.62.43-1.01.58-.39.15-.81.23-1.25.23-.79,0-1.5-.2-2.13-.61-.63-.41-1.13-.96-1.49-1.67-.37-.71-.55-1.51-.55-2.42s.18-1.74.55-2.44c.37-.7.86-1.25,1.48-1.65.62-.4,1.32-.6,2.08-.6.49,0,.94.08,1.36.24.42.16.78.37,1.09.62.31.25.55.52.71.8.17.28.25.55.25.8l-.53.05v-1.56c0-.24.08-.45.25-.62.17-.17.37-.26.61-.26ZM250.93,95.14c.54,0,1.01-.14,1.42-.41.41-.27.73-.65.96-1.12.23-.47.34-1,.34-1.59s-.11-1.13-.34-1.59c-.23-.47-.55-.84-.96-1.11-.41-.27-.89-.41-1.42-.41s-.99.14-1.4.41-.73.65-.96,1.11c-.23.47-.35,1-.35,1.59s.12,1.11.35,1.59c.23.47.55.85.96,1.12s.87.41,1.4.41Z"/>
    <path class="cls-3" d="M259.53,95.67c0,.25-.08.46-.25.63-.17.17-.37.25-.61.25s-.44-.08-.61-.25c-.17-.17-.25-.37-.25-.63v-10.93c0-.25.09-.46.26-.63.17-.17.38-.25.62-.25s.45.08.61.25c.15.17.23.37.23.63v10.93Z"/>
    <path class="cls-3" d="M261.91,87.63h4.03c.23,0,.42.08.57.23s.23.35.23.57-.08.4-.23.55c-.15.15-.35.22-.57.22h-4.03c-.23,0-.42-.08-.57-.23-.15-.15-.23-.34-.23-.56,0-.23.08-.42.23-.57.15-.15.35-.22.57-.22ZM263.71,85.4c.25,0,.46.08.62.25.16.17.24.37.24.63v7.95c0,.21.03.37.1.5.07.13.16.21.28.26.12.05.24.07.37.07s.24-.02.33-.07c.1-.05.21-.07.35-.07s.26.06.38.19c.11.13.17.3.17.51,0,.27-.15.5-.45.67-.3.17-.62.26-.96.26-.19,0-.42-.02-.69-.05s-.52-.12-.76-.26c-.25-.14-.45-.36-.61-.66-.16-.3-.24-.73-.24-1.28v-8.02c0-.25.08-.46.25-.63s.37-.25.61-.25Z"/>
    <path class="cls-3" d="M273.19,87.37c.79,0,1.4.17,1.83.51.43.34.74.79.92,1.36.18.57.27,1.2.27,1.88v4.54c0,.25-.08.46-.25.63s-.37.25-.61.25c-.25,0-.46-.08-.62-.25-.16-.17-.24-.37-.24-.63v-4.54c0-.4-.05-.77-.16-1.1-.11-.33-.3-.59-.57-.79-.27-.19-.64-.29-1.12-.29-.45,0-.84.1-1.19.29-.35.19-.62.46-.81.79-.19.33-.28.7-.28,1.1v4.54c0,.25-.08.46-.25.63s-.37.25-.61.25c-.25,0-.46-.08-.62-.25-.16-.17-.24-.37-.24-.63v-10.93c0-.25.08-.46.24-.63.16-.17.37-.25.62-.25s.44.08.61.25c.17.17.25.37.25.63v4.68l-.31.17c.08-.25.21-.51.4-.77s.42-.5.7-.72c.28-.22.59-.39.93-.52.34-.13.71-.2,1.1-.2Z"/>
    <path class="cls-3" d="M285.34,95.67c-.01.25-.11.46-.28.63-.18.17-.39.25-.63.25-.26,0-.48-.08-.64-.25-.17-.17-.25-.37-.25-.63v-10.25c0-.25.09-.46.26-.63.17-.17.39-.25.67-.25.23,0,.43.08.61.25.18.17.27.37.27.63v10.25Z"/>
    <path class="cls-3" d="M292.57,87.32c.81,0,1.44.17,1.88.51.45.34.76.79.93,1.35.18.57.27,1.2.27,1.89v4.59c0,.25-.08.46-.25.63-.17.17-.37.25-.61.25s-.46-.08-.62-.25c-.16-.17-.24-.37-.24-.63v-4.58c0-.41-.06-.78-.17-1.11-.11-.33-.31-.59-.59-.79-.28-.2-.67-.3-1.17-.3-.47,0-.88.1-1.23.3-.35.2-.63.46-.83.79-.2.33-.3.69-.3,1.11v4.58c0,.25-.08.46-.25.63s-.37.25-.61.25c-.25,0-.46-.08-.62-.25-.16-.17-.24-.37-.24-.63v-7.27c0-.25.08-.46.24-.63.16-.17.37-.25.62-.25s.44.08.61.25c.17.17.25.37.25.63v.96l-.31.17c.08-.25.22-.51.42-.76.2-.26.44-.5.73-.72.29-.22.61-.4.96-.53.35-.13.73-.2,1.13-.2Z"/>
    <path class="cls-3" d="M302.58,87.68c.23,0,.42.07.57.22.15.15.22.34.22.57s-.07.42-.22.57-.34.22-.57.22h-4.44c-.22,0-.4-.07-.56-.22-.15-.15-.23-.34-.23-.57s.08-.42.23-.57c.15-.15.34-.22.56-.22h4.44ZM302.23,83.88c.22,0,.44.03.67.09.23.06.42.15.57.28s.23.31.23.54-.07.41-.21.56c-.14.14-.3.21-.48.21-.11,0-.27-.03-.46-.08-.19-.05-.39-.08-.58-.08-.26,0-.47.06-.63.18-.16.12-.27.27-.34.45s-.1.35-.1.52v9.12c0,.25-.08.46-.25.63-.17.17-.37.25-.61.25s-.46-.08-.62-.25c-.16-.17-.24-.37-.24-.63v-9.1c0-.79.26-1.43.78-1.94.52-.5,1.28-.75,2.27-.75Z"/>
    <path class="cls-3" d="M313.17,92.03c0,.91-.2,1.72-.6,2.42-.4.7-.94,1.25-1.63,1.65-.69.4-1.46.6-2.31.6s-1.63-.2-2.31-.6c-.69-.4-1.23-.95-1.64-1.65-.41-.7-.61-1.51-.61-2.42s.2-1.74.61-2.44c.41-.7.95-1.26,1.64-1.66.69-.41,1.46-.61,2.31-.61s1.63.2,2.31.61c.69.41,1.23.96,1.63,1.66.4.7.6,1.52.6,2.44ZM311.45,92.03c0-.63-.13-1.17-.38-1.64-.25-.46-.59-.83-1.02-1.1s-.91-.4-1.43-.4-1.01.13-1.44.4c-.43.27-.78.63-1.03,1.1-.25.46-.38,1.01-.38,1.64s.13,1.14.38,1.61c.25.47.59.83,1.03,1.1.43.26.91.39,1.44.39s1-.13,1.43-.39c.43-.26.77-.63,1.02-1.1.25-.47.38-1.01.38-1.61Z"/>
    <path class="cls-3" d="M315.96,96.54c-.25,0-.46-.08-.62-.25-.16-.17-.24-.37-.24-.63v-7.27c0-.25.08-.46.24-.63.16-.17.37-.25.62-.25s.44.08.61.25c.17.17.25.37.25.63v1.92l-.17-.74c.09-.32.23-.62.42-.89.19-.27.41-.51.68-.72.26-.21.56-.37.88-.48.33-.11.67-.17,1.02-.17.3,0,.55.08.77.24.22.16.33.36.33.6,0,.31-.08.53-.24.68s-.34.21-.53.21c-.17,0-.34-.04-.5-.11-.16-.07-.35-.11-.57-.11-.24,0-.49.06-.74.19s-.48.31-.69.56-.37.53-.49.87c-.12.33-.18.7-.18,1.11v4.11c0,.25-.08.46-.25.63s-.37.25-.61.25Z"/>
    <path class="cls-3" d="M326.79,87.37c.85,0,1.5.21,1.95.63.46.42.76.98.91,1.69l-.27-.09.12-.27c.15-.3.37-.6.68-.9.3-.3.67-.55,1.09-.75.42-.2.87-.3,1.35-.3.79,0,1.4.17,1.83.51.43.34.74.79.91,1.35.17.57.26,1.2.26,1.89v4.54c0,.25-.08.46-.24.63-.16.17-.37.25-.62.25s-.44-.08-.61-.25c-.17-.17-.25-.37-.25-.63v-4.52c0-.4-.05-.77-.16-1.1-.11-.33-.3-.6-.57-.8-.27-.2-.64-.3-1.11-.3s-.84.1-1.19.3c-.35.2-.62.47-.81.8-.19.33-.29.7-.29,1.1v4.52c0,.25-.08.46-.24.63-.16.17-.37.25-.62.25s-.46-.08-.62-.25c-.16-.17-.24-.37-.24-.63v-4.54c0-.4-.05-.77-.16-1.1-.11-.33-.29-.59-.56-.79-.26-.19-.63-.29-1.1-.29s-.84.1-1.18.29c-.34.19-.61.46-.8.79-.19.33-.28.7-.28,1.1v4.54c0,.25-.08.46-.25.63s-.37.25-.61.25c-.25,0-.46-.08-.62-.25-.16-.17-.24-.37-.24-.63v-7.27c0-.25.08-.46.24-.63.16-.17.37-.25.62-.25s.44.08.61.25c.17.17.25.37.25.63v1.01l-.33.19c.08-.25.21-.51.39-.77.18-.26.41-.5.69-.72.28-.22.59-.39.93-.53.34-.14.71-.21,1.11-.21Z"/>
    <path class="cls-3" d="M345.4,87.39c.25,0,.46.08.62.25.16.17.24.37.24.63v7.4c0,.25-.08.46-.24.63-.16.17-.37.25-.62.25s-.44-.08-.61-.25c-.17-.17-.25-.37-.25-.63v-1.23l.36.05c0,.21-.08.43-.25.69-.17.25-.39.49-.68.73-.29.23-.62.43-1.01.58-.39.15-.81.23-1.25.23-.79,0-1.5-.2-2.13-.61-.63-.41-1.13-.96-1.49-1.67-.37-.71-.55-1.51-.55-2.42s.18-1.74.55-2.44c.37-.7.86-1.25,1.48-1.65.62-.4,1.32-.6,2.08-.6.49,0,.94.08,1.36.24.42.16.78.37,1.09.62.31.25.55.52.71.8.17.28.25.55.25.8l-.53.05v-1.56c0-.24.08-.45.25-.62.17-.17.37-.26.61-.26ZM341.9,95.14c.54,0,1.01-.14,1.42-.41.41-.27.73-.65.96-1.12.23-.47.34-1,.34-1.59s-.11-1.13-.34-1.59c-.23-.47-.55-.84-.96-1.11-.41-.27-.89-.41-1.42-.41s-.99.14-1.4.41-.73.65-.96,1.11c-.23.47-.35,1-.35,1.59s.12,1.11.35,1.59c.23.47.55.85.96,1.12s.87.41,1.4.41Z"/>
    <path class="cls-3" d="M348.54,87.63h4.03c.23,0,.42.08.57.23s.23.35.23.57-.08.4-.23.55c-.15.15-.35.22-.57.22h-4.03c-.23,0-.42-.08-.57-.23-.15-.15-.23-.34-.23-.56,0-.23.08-.42.23-.57.15-.15.35-.22.57-.22ZM350.33,85.4c.25,0,.46.08.62.25.16.17.24.37.24.63v7.95c0,.21.03.37.1.5.07.13.16.21.28.26.12.05.24.07.37.07s.24-.02.33-.07c.1-.05.21-.07.35-.07s.26.06.38.19c.11.13.17.3.17.51,0,.27-.15.5-.45.67-.3.17-.62.26-.96.26-.19,0-.42-.02-.69-.05s-.52-.12-.76-.26c-.25-.14-.45-.36-.61-.66-.16-.3-.24-.73-.24-1.28v-8.02c0-.25.08-.46.25-.63s.37-.25.61-.25Z"/>
    <path class="cls-3" d="M356.01,86.33c-.33,0-.57-.06-.72-.18-.15-.12-.22-.32-.22-.61v-.27c0-.29.08-.49.24-.6.16-.11.4-.17.72-.17.34,0,.59.06.74.18.15.12.22.32.22.59v.27c0,.3-.08.5-.23.62-.15.11-.4.17-.75.17ZM356.88,95.67c0,.25-.08.46-.24.63-.16.17-.37.25-.62.25s-.44-.08-.61-.25c-.17-.17-.25-.37-.25-.63v-7.33c0-.25.08-.46.25-.63.17-.17.37-.25.61-.25s.46.08.62.25c.16.17.24.37.24.63v7.33Z"/>
    <path class="cls-3" d="M367.83,92.03c0,.91-.2,1.72-.6,2.42-.4.7-.94,1.25-1.63,1.65-.69.4-1.46.6-2.31.6s-1.63-.2-2.31-.6c-.69-.4-1.23-.95-1.64-1.65-.41-.7-.61-1.51-.61-2.42s.2-1.74.61-2.44c.41-.7.95-1.26,1.64-1.66.69-.41,1.46-.61,2.31-.61s1.63.2,2.31.61c.69.41,1.23.96,1.63,1.66.4.7.6,1.52.6,2.44ZM366.12,92.03c0-.63-.13-1.17-.38-1.64-.25-.46-.59-.83-1.02-1.1s-.91-.4-1.43-.4-1.01.13-1.44.4c-.43.27-.78.63-1.03,1.1-.25.46-.38,1.01-.38,1.64s.13,1.14.38,1.61c.25.47.59.83,1.03,1.1.43.26.91.39,1.44.39s1-.13,1.43-.39c.43-.26.77-.63,1.02-1.1.25-.47.38-1.01.38-1.61Z"/>
    <path class="cls-3" d="M374.41,87.32c.81,0,1.44.17,1.88.51.45.34.76.79.93,1.35.18.57.27,1.2.27,1.89v4.59c0,.25-.08.46-.25.63-.17.17-.37.25-.61.25s-.46-.08-.62-.25c-.16-.17-.24-.37-.24-.63v-4.58c0-.41-.06-.78-.17-1.11-.11-.33-.31-.59-.59-.79-.28-.2-.67-.3-1.17-.3-.47,0-.88.1-1.23.3-.35.2-.63.46-.83.79-.2.33-.3.69-.3,1.11v4.58c0,.25-.08.46-.25.63s-.37.25-.61.25c-.25,0-.46-.08-.62-.25-.16-.17-.24-.37-.24-.63v-7.27c0-.25.08-.46.24-.63.16-.17.37-.25.62-.25s.44.08.61.25c.17.17.25.37.25.63v.96l-.31.17c.08-.25.22-.51.42-.76.2-.26.44-.5.73-.72.29-.22.61-.4.96-.53.35-.13.73-.2,1.13-.2Z"/>
  </g>
  <path class="cls-1" d="M62.44,40.13c-3.57-24.81,11.23-36.68,28.02-36.28-14.62,2.57-26.74,11.25-28.02,36.28Z"/>
</svg>