<?xml version="1.0" encoding="UTF-8"?>
<svg id="Layer_1" data-name="Layer 1" xmlns="http://www.w3.org/2000/svg" viewBox="0 0 400 100">
  <defs>
    <style>
      .cls-1 {
        fill: #0696b0;
      }

      .cls-2 {
        fill: none;
      }

      .cls-3 {
        fill: #d83471;
      }

      .cls-4 {
        fill: #f77e48;
      }

      .cls-5 {
        fill: #024376;
      }
    </style>
  </defs>
  <path class="cls-3" d="M124.4,59.15c-.99.19-1.8.9-2.12,1.85l4.79-.89c-.65-.78-1.67-1.15-2.67-.96ZM138.23,0c-10.41,0-19.72,4.66-25.98,12-6.25-7.35-15.58-12-25.98-12-18.85,0-34.12,15.27-34.12,34.12,0,9.89,4.55,18.17,10.94,25.03l7.8,7.5,5.28,5.07h7.19l7.87,7.87c.7.7,1.73.98,2.68.73.96-.25,1.72-1,1.98-1.95l8.48-30.47,5.76,49.63c.15,1.31,1.18,2.32,2.5,2.46.09,0,.19.01.28.01,1.2,0,2.27-.76,2.65-1.93l10.26-31.53,3.54,4.28c.53.64,1.31,1.01,2.15,1.01h16.77l5.25-5.07,7.31-7.07c6.14-6.4,11.52-15.39,11.52-25.56,0-18.85-15.27-34.12-34.12-34.12ZM157.23,56.1l-7.24,7-3.77,3.65h-13.64l-2.86-3.45-2.65-3.19c-.65-.78-1.67-1.15-2.67-.96-.99.19-1.8.9-2.12,1.85,0,0,0,.02-.01.03l-8.31,25.54-.73-6.32-5.17-44.5c-.15-1.32-1.23-2.36-2.55-2.46-1.33-.1-2.55.75-2.91,2.03l-10.56,37.93-5.77-5.77c-.53-.53-1.23-.82-1.97-.82h-6.09l-3.81-3.66-7.7-7.4c-6.38-6.9-9.49-13.92-9.49-21.47s3.02-15.06,8.51-20.54c5.49-5.49,12.78-8.51,20.54-8.51,8.52,0,16.59,3.72,22.11,10.22l3.86,4.54,3.86-4.54c5.53-6.49,13.59-10.22,22.11-10.22,7.76,0,15.06,3.02,20.54,8.51,5.49,5.49,8.51,12.78,8.51,20.54,0,9.95-6.26,18.02-10.04,21.98Z"/>
  <g>
    <path class="cls-1" d="M70.89,66.66l5.28,5.07h-36.08c-1.4,0-2.54-1.14-2.54-2.54,0-.7.28-1.33.74-1.79.46-.46,1.09-.74,1.79-.74h30.81Z"/>
    <path class="cls-1" d="M362.45,69.29c0,1.4-1.13,2.54-2.54,2.54h-211.64l5.25-5.07h206.4c1.4,0,2.54,1.14,2.54,2.54Z"/>
  </g>
  <g>
    <path class="cls-5" d="M197.18,59.02c-3.52,0-6.58-.74-9.17-2.21-2.59-1.47-4.58-3.47-5.97-6-1.39-2.53-2.08-5.39-2.08-8.58,0-3.73.76-6.91,2.27-9.54,1.51-2.63,3.49-4.65,5.94-6.06,2.44-1.41,5.03-2.11,7.77-2.11,2.11,0,4.11.44,6,1.31,1.89.87,3.55,2.06,5,3.57,1.45,1.51,2.6,3.26,3.45,5.25.85,1.99,1.27,4.1,1.27,6.34-.04.99-.44,1.8-1.18,2.42s-1.62.93-2.61.93h-23.74l-1.86-6.22h22.81l-1.37,1.24v-1.68c-.08-1.2-.51-2.28-1.27-3.23-.77-.95-1.72-1.71-2.86-2.27-1.14-.56-2.35-.84-3.64-.84s-2.4.17-3.48.5c-1.08.33-2.01.89-2.8,1.68s-1.41,1.84-1.86,3.17c-.46,1.33-.68,3-.68,5.03,0,2.24.47,4.13,1.4,5.69.93,1.55,2.13,2.73,3.61,3.54,1.47.81,3.03,1.21,4.69,1.21,1.53,0,2.76-.12,3.67-.37.91-.25,1.65-.55,2.21-.9.56-.35,1.07-.65,1.52-.9.75-.37,1.45-.56,2.11-.56.91,0,1.67.31,2.27.93.6.62.9,1.35.9,2.18,0,1.12-.58,2.13-1.74,3.05-1.08.91-2.59,1.71-4.54,2.39-1.95.68-3.96,1.03-6.03,1.03Z"/>
    <path class="cls-5" d="M219.49,43.05c-1.08,0-1.98-.35-2.7-1.06-.73-.7-1.09-1.59-1.09-2.67s.36-1.96,1.09-2.64c.72-.68,1.63-1.03,2.7-1.03h10.82c1.08,0,1.98.36,2.7,1.09.72.73,1.09,1.63,1.09,2.7s-.36,1.9-1.09,2.58c-.73.68-1.63,1.03-2.7,1.03h-10.82Z"/>
    <path class="cls-5" d="M244.3,14.89c.99,0,1.87.36,2.64,1.09.77.73,1.15,1.63,1.15,2.7v35.93c0,1.08-.39,1.98-1.18,2.7-.79.73-1.7,1.09-2.73,1.09-1.16,0-2.09-.36-2.8-1.09-.71-.72-1.06-1.63-1.06-2.7V18.68c0-1.08.37-1.98,1.12-2.7.75-.72,1.7-1.09,2.86-1.09ZM244.11,32.98h27.72v7.15h-27.72v-7.15ZM271.83,14.89c1.16,0,2.09.36,2.8,1.09.7.73,1.06,1.63,1.06,2.7v35.93c0,1.08-.36,1.98-1.09,2.7-.73.73-1.69,1.09-2.89,1.09-.99,0-1.88-.36-2.64-1.09-.77-.72-1.15-1.63-1.15-2.7V18.68c0-1.08.39-1.98,1.18-2.7.79-.72,1.7-1.09,2.74-1.09Z"/>
    <path class="cls-5" d="M299.43,24.65l-13.43,31.58c-.29.79-.74,1.4-1.34,1.83-.6.44-1.25.65-1.96.65-1.12,0-1.95-.31-2.49-.93-.54-.62-.81-1.39-.81-2.3,0-.37.06-.77.19-1.18l15.48-37.17c.33-.83.84-1.47,1.52-1.93.68-.46,1.42-.64,2.21-.56.75,0,1.44.22,2.08.65.64.44,1.11,1.05,1.4,1.83l15.29,36.42c.21.54.31,1.04.31,1.49,0,1.12-.36,2.01-1.09,2.67-.73.66-1.52.99-2.39.99-.75,0-1.42-.23-2.02-.68-.6-.46-1.07-1.08-1.4-1.86l-13.36-31.14,1.8-.37ZM287.93,48.64l3.42-7.15h16.78l1.18,7.15h-21.38Z"/>
    <path class="cls-5" d="M319.51,22.04c-1.08,0-1.98-.33-2.7-.99-.73-.66-1.09-1.53-1.09-2.61s.36-1.94,1.09-2.58c.72-.64,1.63-.96,2.7-.96h27.6c1.08,0,1.98.33,2.7.99.72.66,1.09,1.53,1.09,2.61s-.36,1.94-1.09,2.58c-.73.64-1.63.96-2.7.96h-27.6ZM333.24,58.4c-1.16,0-2.11-.36-2.86-1.09-.75-.72-1.12-1.63-1.12-2.7V18.56h8.08v36.05c0,1.08-.38,1.98-1.15,2.7-.77.73-1.75,1.09-2.95,1.09Z"/>
    <path class="cls-5" d="M358.48,21.11c-1.41,0-2.4-.23-2.98-.68-.58-.46-.87-1.26-.87-2.42v-1.18c0-1.2.32-2.02.96-2.46.64-.44,1.63-.65,2.95-.65,1.45,0,2.46.23,3.05.68.58.46.87,1.26.87,2.42v1.18c0,1.2-.31,2.02-.93,2.46-.62.44-1.64.65-3.05.65ZM362.27,54.61c0,1.08-.35,1.98-1.06,2.7-.7.73-1.6,1.09-2.67,1.09s-1.97-.36-2.67-1.09c-.71-.72-1.06-1.63-1.06-2.7v-25.67c0-1.08.35-1.98,1.06-2.7.7-.72,1.59-1.09,2.67-1.09s1.97.36,2.67,1.09c.7.73,1.06,1.63,1.06,2.7v25.67Z"/>
  </g>
  <line class="cls-2" x1="76.17" y1="71.73" x2="70.89" y2="66.66"/>
  <line class="cls-2" x1="153.52" y1="66.75" x2="148.27" y2="71.83"/>
  <g>
    <path class="cls-4" d="M149.05,79.44h5.27c.21,0,.39.07.54.21.15.14.22.32.22.53s-.07.39-.22.52c-.15.13-.33.2-.54.2h-4.6l.15-.26v3.41l-.14-.15h3.9c.21,0,.39.07.54.21.15.14.22.32.22.55s-.07.39-.22.52c-.15.13-.33.2-.54.2h-3.87l.11-.14v3.52l-.11-.12h4.55c.21,0,.39.07.54.22.15.15.22.32.22.51,0,.21-.07.39-.22.53-.15.14-.33.21-.54.21h-5.27c-.21,0-.4-.07-.55-.22-.15-.15-.23-.33-.23-.56v-9.1c0-.22.08-.41.23-.56.15-.15.33-.22.55-.22Z"/>
    <path class="cls-4" d="M160.82,81.95c.75,0,1.33.19,1.74.56.41.37.67.87.81,1.5l-.24-.08.11-.24c.13-.26.33-.53.6-.8.27-.27.59-.49.97-.67.38-.18.78-.27,1.2-.27.7,0,1.24.15,1.63.45.39.3.65.7.81,1.2.15.5.23,1.06.23,1.68v4.03c0,.22-.07.41-.21.56-.14.15-.32.22-.55.22s-.39-.07-.54-.22c-.15-.15-.22-.33-.22-.56v-4.02c0-.36-.05-.68-.14-.97-.1-.29-.26-.53-.5-.71-.24-.18-.57-.27-.98-.27s-.75.09-1.06.27c-.31.18-.55.41-.72.71-.17.29-.26.62-.26.97v4.02c0,.22-.07.41-.21.56-.14.15-.32.22-.55.22s-.41-.07-.55-.22c-.14-.15-.21-.33-.21-.56v-4.03c0-.36-.05-.68-.14-.97-.1-.29-.26-.53-.49-.7-.23-.17-.56-.26-.97-.26s-.75.09-1.05.26c-.3.17-.54.41-.71.7s-.25.62-.25.97v4.03c0,.22-.07.41-.22.56-.15.15-.33.22-.54.22s-.41-.07-.55-.22c-.14-.15-.21-.33-.21-.56v-6.45c0-.22.07-.41.21-.56.14-.15.32-.22.55-.22s.39.07.54.22c.15.15.22.33.22.56v.9l-.29.17c.07-.22.19-.45.35-.69.16-.23.37-.45.62-.64.25-.19.53-.35.83-.47.3-.12.63-.18.99-.18Z"/>
    <path class="cls-4" d="M174.82,81.95c.71,0,1.34.18,1.9.53.55.36.99.84,1.32,1.45.32.61.49,1.33.49,2.14s-.16,1.53-.49,2.15c-.32.62-.76,1.11-1.31,1.47-.55.36-1.17.53-1.86.53-.39,0-.75-.06-1.1-.18-.35-.12-.65-.28-.91-.48-.26-.2-.48-.41-.65-.63s-.27-.43-.31-.62l.41-.2v4.25c0,.22-.07.41-.22.56-.15.15-.33.22-.54.22s-.41-.07-.55-.22c-.14-.15-.21-.33-.21-.56v-9.53c0-.21.07-.4.21-.55.14-.15.32-.23.55-.23s.39.08.54.23c.15.15.22.33.22.55v1.05l-.24-.14c.03-.19.13-.39.29-.6.16-.21.37-.4.62-.59.25-.18.53-.33.85-.44.32-.11.65-.17,1-.17ZM174.66,83.35c-.49,0-.91.12-1.27.36-.36.24-.64.56-.84.97-.2.41-.3.87-.3,1.4s.1.99.3,1.41c.2.42.48.75.84.99.36.24.78.36,1.27.36s.89-.12,1.25-.36c.36-.24.64-.57.84-.99.21-.42.31-.89.31-1.41s-.1-.98-.31-1.39c-.21-.41-.49-.74-.84-.97-.36-.24-.77-.36-1.25-.36Z"/>
    <path class="cls-4" d="M181.89,89.32c0,.22-.07.41-.22.56-.15.15-.33.22-.54.22s-.39-.07-.54-.22c-.15-.15-.22-.33-.22-.56v-9.71c0-.22.08-.41.23-.56.15-.15.33-.22.55-.22s.4.07.54.22c.14.15.21.33.21.56v9.71Z"/>
    <path class="cls-4" d="M191.67,86.09c0,.81-.18,1.53-.53,2.15-.36.62-.84,1.11-1.45,1.47-.61.36-1.29.53-2.06.53s-1.45-.18-2.06-.53c-.61-.36-1.09-.84-1.45-1.47-.36-.62-.54-1.34-.54-2.15s.18-1.55.54-2.17c.36-.62.84-1.12,1.45-1.48.61-.36,1.29-.54,2.06-.54s1.45.18,2.06.54c.61.36,1.09.85,1.45,1.48.36.62.53,1.35.53,2.17ZM190.15,86.09c0-.56-.11-1.04-.33-1.45-.22-.41-.53-.74-.91-.97s-.8-.36-1.27-.36-.89.12-1.28.36c-.39.24-.69.56-.91.97-.22.41-.33.9-.33,1.45s.11,1.02.33,1.43c.22.42.53.74.91.97.39.23.81.35,1.28.35s.89-.12,1.27-.35c.38-.23.68-.56.91-.97.22-.42.33-.89.33-1.43Z"/>
    <path class="cls-4" d="M199.35,82.03c.22,0,.41.07.55.22.14.15.21.33.21.56v6.55c0,.89-.17,1.62-.51,2.18-.34.56-.8.97-1.37,1.23-.57.26-1.22.39-1.94.39-.37,0-.73-.03-1.1-.1-.37-.07-.66-.16-.9-.28-.24-.11-.42-.25-.52-.41-.1-.16-.12-.34-.05-.53.07-.24.19-.41.37-.49.17-.09.35-.09.53-.02.17.07.4.16.68.27.28.11.61.17.97.17.5,0,.92-.08,1.26-.24.34-.16.61-.42.78-.76.18-.34.27-.79.27-1.34v-1.05l.24.37c-.16.33-.38.61-.64.84-.26.22-.58.4-.94.52-.36.12-.76.18-1.2.18-.56,0-1.04-.12-1.44-.37-.4-.25-.71-.59-.92-1.04s-.32-.95-.32-1.51v-4.52c0-.22.07-.41.21-.56.14-.15.32-.22.55-.22s.39.07.54.22c.15.15.22.33.22.56v4.11c0,.67.15,1.16.44,1.47.29.31.73.46,1.31.46.39,0,.72-.08,1-.24.28-.16.51-.39.67-.68.16-.29.24-.63.24-1.01v-4.11c0-.22.07-.41.22-.56.15-.15.33-.22.54-.22Z"/>
    <path class="cls-4" d="M205.89,90.25c-.84,0-1.57-.17-2.19-.53-.62-.35-1.1-.83-1.44-1.45-.34-.61-.51-1.32-.51-2.11,0-.89.18-1.66.54-2.29.36-.63.83-1.12,1.41-1.46.58-.34,1.19-.51,1.84-.51.5,0,.97.1,1.42.3.45.2.84.47,1.19.82s.63.76.83,1.23c.2.47.31.99.32,1.55-.01.2-.09.37-.24.5-.15.13-.33.2-.53.2h-5.92l-.37-1.29h5.72l-.29.27v-.38c-.02-.36-.14-.67-.35-.94-.21-.27-.48-.48-.79-.62-.31-.15-.64-.22-.99-.22-.3,0-.6.05-.88.14-.28.1-.53.25-.75.46-.22.21-.39.49-.52.84-.13.35-.19.78-.19,1.3,0,.56.12,1.05.35,1.46.23.42.55.74.94.97.4.23.83.34,1.31.34.38,0,.68-.04.93-.11.24-.08.45-.17.61-.28.16-.11.3-.22.43-.32.15-.09.3-.14.46-.14.18,0,.33.06.46.19.12.13.18.28.18.45,0,.22-.11.43-.33.61-.27.26-.65.5-1.13.7-.48.2-.99.3-1.51.3Z"/>
    <path class="cls-4" d="M214.75,90.25c-.84,0-1.57-.17-2.19-.53-.62-.35-1.1-.83-1.44-1.45-.34-.61-.51-1.32-.51-2.11,0-.89.18-1.66.54-2.29.36-.63.83-1.12,1.41-1.46.58-.34,1.19-.51,1.84-.51.5,0,.97.1,1.42.3.45.2.84.47,1.19.82.35.35.63.76.83,1.23.2.47.31.99.32,1.55-.01.2-.09.37-.24.5-.15.13-.33.2-.53.2h-5.92l-.37-1.29h5.72l-.29.27v-.38c-.02-.36-.14-.67-.35-.94-.21-.27-.48-.48-.79-.62-.31-.15-.64-.22-.99-.22-.3,0-.6.05-.88.14-.28.1-.53.25-.75.46-.22.21-.39.49-.52.84s-.19.78-.19,1.3c0,.56.12,1.05.35,1.46.23.42.55.74.94.97.4.23.83.34,1.31.34.38,0,.69-.04.93-.11s.45-.17.61-.28c.16-.11.3-.22.43-.32.15-.09.3-.14.46-.14.18,0,.33.06.46.19.12.13.18.28.18.45,0,.22-.11.43-.33.61-.27.26-.65.5-1.13.7-.48.2-.99.3-1.51.3Z"/>
    <path class="cls-4" d="M225.1,79.44c.2,0,.38.07.54.22.16.15.24.33.24.56v9.1c-.01.22-.09.41-.25.56-.16.15-.34.22-.56.22-.23,0-.42-.07-.57-.22-.15-.15-.22-.33-.22-.56v-9.1c0-.22.08-.41.23-.56.15-.15.35-.22.59-.22ZM225.04,83.98h6.94l-.02,1.46h-6.94l.02-1.46ZM231.97,79.44c.24,0,.44.07.58.22.14.15.21.33.21.56v9.1c0,.22-.07.41-.22.56s-.34.22-.59.22c-.21,0-.4-.07-.55-.22-.15-.15-.23-.33-.23-.56v-9.1c0-.22.08-.41.24-.56.16-.15.34-.22.56-.22Z"/>
    <path class="cls-4" d="M238.79,90.25c-.84,0-1.57-.17-2.19-.53-.62-.35-1.1-.83-1.44-1.45-.34-.61-.51-1.32-.51-2.11,0-.89.18-1.66.54-2.29.36-.63.83-1.12,1.41-1.46.58-.34,1.19-.51,1.84-.51.5,0,.97.1,1.42.3.45.2.84.47,1.19.82.35.35.63.76.83,1.23.2.47.31.99.32,1.55-.01.2-.09.37-.24.5-.15.13-.33.2-.53.2h-5.92l-.37-1.29h5.72l-.29.27v-.38c-.02-.36-.14-.67-.35-.94-.21-.27-.48-.48-.79-.62-.31-.15-.64-.22-.99-.22-.3,0-.6.05-.88.14-.28.1-.53.25-.75.46-.22.21-.39.49-.52.84s-.19.78-.19,1.3c0,.56.12,1.05.35,1.46.23.42.55.74.94.97.4.23.83.34,1.31.34.38,0,.69-.04.93-.11s.45-.17.61-.28c.16-.11.3-.22.43-.32.15-.09.3-.14.46-.14.18,0,.33.06.46.19.12.13.18.28.18.45,0,.22-.11.43-.33.61-.27.26-.65.5-1.13.7-.48.2-.99.3-1.51.3Z"/>
    <path class="cls-4" d="M250.54,81.97c.22,0,.41.07.55.22.14.15.21.33.21.56v6.58c0,.22-.07.41-.21.56-.14.15-.32.22-.55.22s-.39-.07-.54-.22c-.15-.15-.22-.33-.22-.56v-1.1l.32.05c0,.18-.07.39-.22.61-.15.22-.35.44-.6.65-.25.21-.55.38-.9.52-.35.14-.72.21-1.11.21-.7,0-1.33-.18-1.89-.54-.56-.36-1-.85-1.32-1.48-.32-.63-.49-1.34-.49-2.15s.16-1.55.49-2.17c.32-.62.76-1.11,1.32-1.47.55-.36,1.17-.53,1.85-.53.44,0,.84.07,1.21.21.37.14.69.33.97.55.27.22.48.46.63.71.15.25.22.48.22.71l-.47.05v-1.39c0-.21.07-.4.22-.55.15-.15.33-.23.54-.23ZM247.44,88.85c.48,0,.9-.12,1.26-.37.37-.24.65-.58.85-1,.2-.42.3-.89.3-1.41s-.1-1-.3-1.42c-.2-.42-.49-.75-.85-.99-.37-.24-.79-.37-1.26-.37s-.88.12-1.24.37-.64.57-.85.99c-.21.42-.31.89-.31,1.42s.1.99.31,1.41c.21.42.49.75.85,1s.77.37,1.24.37Z"/>
    <path class="cls-4" d="M255.08,89.32c0,.22-.07.41-.22.56-.15.15-.33.22-.54.22s-.39-.07-.54-.22c-.15-.15-.22-.33-.22-.56v-9.71c0-.22.08-.41.23-.56.15-.15.33-.22.55-.22s.4.07.54.22c.14.15.21.33.21.56v9.71Z"/>
    <path class="cls-4" d="M257.19,82.18h3.58c.2,0,.37.07.51.21s.21.31.21.51-.07.36-.21.49c-.14.13-.31.2-.51.2h-3.58c-.2,0-.37-.07-.51-.21-.14-.14-.21-.3-.21-.49,0-.2.07-.37.21-.5.14-.13.31-.2.51-.2ZM258.79,80.2c.22,0,.41.07.55.22.14.15.21.33.21.56v7.06c0,.18.03.33.09.44.06.11.14.19.25.23.11.04.22.06.33.06s.21-.02.3-.06c.09-.04.19-.06.31-.06s.23.06.33.17c.1.11.15.26.15.46,0,.24-.13.44-.4.59-.26.15-.55.23-.85.23-.17,0-.38-.02-.61-.05s-.46-.11-.68-.23c-.22-.12-.4-.32-.54-.59-.14-.27-.21-.65-.21-1.13v-7.12c0-.22.07-.41.22-.56s.33-.22.54-.22Z"/>
    <path class="cls-4" d="M267.21,81.95c.7,0,1.24.15,1.63.45.39.3.66.7.81,1.21.16.51.24,1.07.24,1.67v4.03c0,.22-.07.41-.22.56s-.33.22-.54.22c-.22,0-.41-.07-.55-.22-.14-.15-.21-.33-.21-.56v-4.03c0-.36-.05-.68-.14-.97-.1-.29-.26-.53-.5-.7-.24-.17-.57-.26-1-.26-.4,0-.75.09-1.06.26-.31.17-.55.41-.72.7-.17.29-.25.62-.25.97v4.03c0,.22-.07.41-.22.56s-.33.22-.54.22c-.22,0-.41-.07-.55-.22-.14-.15-.21-.33-.21-.56v-9.71c0-.22.07-.41.21-.56.14-.15.32-.22.55-.22s.39.07.54.22c.15.15.22.33.22.56v4.16l-.27.15c.07-.22.19-.45.36-.68s.38-.45.62-.64c.25-.19.53-.35.83-.46.3-.12.63-.17.97-.17Z"/>
    <path class="cls-4" d="M278,89.32c-.01.22-.09.41-.25.56-.16.15-.34.22-.56.22-.23,0-.42-.07-.57-.22-.15-.15-.22-.33-.22-.56v-9.1c0-.22.08-.41.23-.56.15-.15.35-.22.59-.22.2,0,.38.07.54.22.16.15.24.33.24.56v9.1Z"/>
    <path class="cls-4" d="M284.43,81.9c.72,0,1.28.15,1.67.45.4.3.67.7.83,1.2.16.5.24,1.06.24,1.68v4.08c0,.22-.07.41-.22.56-.15.15-.33.22-.54.22s-.41-.07-.55-.22c-.14-.15-.21-.33-.21-.56v-4.06c0-.37-.05-.69-.15-.98-.1-.29-.28-.52-.53-.7-.25-.18-.6-.27-1.04-.27-.42,0-.78.09-1.1.27-.31.18-.56.41-.74.7-.18.29-.27.62-.27.98v4.06c0,.22-.07.41-.22.56s-.33.22-.54.22c-.22,0-.41-.07-.55-.22-.14-.15-.21-.33-.21-.56v-6.45c0-.22.07-.41.21-.56.14-.15.32-.22.55-.22s.39.07.54.22c.15.15.22.33.22.56v.85l-.27.15c.07-.22.2-.45.37-.68.18-.23.39-.44.65-.64.25-.2.54-.36.85-.47.31-.12.65-.18,1-.18Z"/>
    <path class="cls-4" d="M293.32,82.22c.2,0,.37.07.5.2.13.13.2.3.2.5s-.07.37-.2.5-.3.2-.5.2h-3.94c-.19,0-.36-.07-.49-.2-.14-.13-.21-.3-.21-.5s.07-.37.21-.5c.14-.13.3-.2.49-.2h3.94ZM293.01,78.84c.19,0,.39.03.59.08.2.05.37.13.51.25s.21.28.21.48-.06.37-.18.49c-.12.13-.26.19-.43.19-.1,0-.24-.02-.41-.07-.17-.05-.35-.07-.52-.07-.23,0-.42.05-.56.16-.14.11-.24.24-.3.4s-.09.31-.09.46v8.1c0,.22-.07.41-.22.56-.15.15-.33.22-.54.22s-.41-.07-.55-.22c-.14-.15-.21-.33-.21-.56v-8.08c0-.7.23-1.27.69-1.72.46-.45,1.13-.67,2.02-.67Z"/>
    <path class="cls-4" d="M302.73,86.09c0,.81-.18,1.53-.53,2.15-.36.62-.84,1.11-1.45,1.47-.61.36-1.29.53-2.06.53s-1.45-.18-2.06-.53c-.61-.36-1.09-.84-1.45-1.47-.36-.62-.54-1.34-.54-2.15s.18-1.55.54-2.17c.36-.62.84-1.12,1.45-1.48.61-.36,1.29-.54,2.06-.54s1.45.18,2.06.54c.61.36,1.09.85,1.45,1.48.36.62.53,1.35.53,2.17ZM301.2,86.09c0-.56-.11-1.04-.33-1.45-.22-.41-.53-.74-.91-.97s-.8-.36-1.27-.36-.89.12-1.28.36c-.39.24-.69.56-.91.97-.22.41-.33.9-.33,1.45s.11,1.02.33,1.43c.22.42.53.74.91.97.39.23.81.35,1.28.35s.89-.12,1.27-.35c.38-.23.68-.56.91-.97.22-.42.33-.89.33-1.43Z"/>
    <path class="cls-4" d="M305.21,90.09c-.22,0-.41-.07-.55-.22-.14-.15-.21-.33-.21-.56v-6.45c0-.22.07-.41.21-.56.14-.15.32-.22.55-.22s.39.07.54.22c.15.15.22.33.22.56v1.7l-.15-.65c.08-.28.21-.55.37-.79.17-.24.37-.46.6-.64.23-.18.49-.32.78-.43.29-.1.59-.15.91-.15.26,0,.49.07.69.21.19.14.29.32.29.53,0,.27-.07.47-.21.6s-.3.19-.47.19c-.15,0-.3-.03-.44-.1-.14-.07-.31-.1-.5-.1-.21,0-.43.06-.65.17s-.43.28-.61.49-.33.47-.43.77c-.11.29-.16.62-.16.99v3.65c0,.22-.07.41-.22.56s-.33.22-.54.22Z"/>
    <path class="cls-4" d="M314.83,81.95c.75,0,1.33.19,1.74.56.41.37.67.87.81,1.5l-.24-.08.11-.24c.13-.26.33-.53.6-.8.27-.27.59-.49.97-.67.38-.18.78-.27,1.2-.27.7,0,1.24.15,1.63.45.39.3.65.7.81,1.2.15.5.23,1.06.23,1.68v4.03c0,.22-.07.41-.21.56-.14.15-.32.22-.55.22s-.39-.07-.54-.22c-.15-.15-.22-.33-.22-.56v-4.02c0-.36-.05-.68-.14-.97-.1-.29-.26-.53-.5-.71-.24-.18-.57-.27-.98-.27s-.75.09-1.06.27c-.31.18-.55.41-.72.71-.17.29-.26.62-.26.97v4.02c0,.22-.07.41-.21.56-.14.15-.32.22-.55.22s-.41-.07-.55-.22c-.14-.15-.21-.33-.21-.56v-4.03c0-.36-.05-.68-.14-.97-.1-.29-.26-.53-.49-.7-.23-.17-.56-.26-.97-.26s-.75.09-1.05.26c-.3.17-.54.41-.71.7-.17.29-.25.62-.25.97v4.03c0,.22-.07.41-.22.56s-.33.22-.54.22c-.22,0-.41-.07-.55-.22-.14-.15-.21-.33-.21-.56v-6.45c0-.22.07-.41.21-.56.14-.15.32-.22.55-.22s.39.07.54.22c.15.15.22.33.22.56v.9l-.29.17c.07-.22.19-.45.35-.69.16-.23.37-.45.62-.64.25-.19.53-.35.83-.47.3-.12.63-.18.99-.18Z"/>
    <path class="cls-4" d="M331.36,81.97c.22,0,.41.07.55.22.14.15.21.33.21.56v6.58c0,.22-.07.41-.21.56-.14.15-.32.22-.55.22s-.39-.07-.54-.22c-.15-.15-.22-.33-.22-.56v-1.1l.32.05c0,.18-.07.39-.22.61-.15.22-.35.44-.6.65-.25.21-.55.38-.9.52-.35.14-.72.21-1.11.21-.7,0-1.33-.18-1.89-.54-.56-.36-1-.85-1.32-1.48-.32-.63-.49-1.34-.49-2.15s.16-1.55.49-2.17c.32-.62.76-1.11,1.32-1.47.55-.36,1.17-.53,1.85-.53.44,0,.84.07,1.21.21.37.14.69.33.97.55.27.22.48.46.63.71.15.25.22.48.22.71l-.47.05v-1.39c0-.21.07-.4.22-.55.15-.15.33-.23.54-.23ZM328.25,88.85c.48,0,.9-.12,1.26-.37.37-.24.65-.58.85-1,.2-.42.3-.89.3-1.41s-.1-1-.3-1.42c-.2-.42-.49-.75-.85-.99-.37-.24-.79-.37-1.26-.37s-.88.12-1.24.37-.64.57-.85.99c-.21.42-.31.89-.31,1.42s.1.99.31,1.41c.21.42.49.75.85,1s.77.37,1.24.37Z"/>
    <path class="cls-4" d="M334.14,82.18h3.58c.2,0,.37.07.51.21s.21.31.21.51-.07.36-.21.49c-.14.13-.31.2-.51.2h-3.58c-.2,0-.37-.07-.51-.21-.14-.14-.21-.3-.21-.49,0-.2.07-.37.21-.5.14-.13.31-.2.51-.2ZM335.74,80.2c.22,0,.41.07.55.22.14.15.21.33.21.56v7.06c0,.18.03.33.09.44.06.11.14.19.25.23.11.04.22.06.33.06s.21-.02.3-.06c.09-.04.19-.06.31-.06s.23.06.33.17c.1.11.15.26.15.46,0,.24-.13.44-.4.59-.26.15-.55.23-.85.23-.17,0-.38-.02-.61-.05s-.46-.11-.68-.23c-.22-.12-.4-.32-.54-.59-.14-.27-.21-.65-.21-1.13v-7.12c0-.22.07-.41.22-.56s.33-.22.54-.22Z"/>
    <path class="cls-4" d="M340.78,81.02c-.29,0-.51-.05-.64-.16-.13-.11-.2-.29-.2-.54v-.24c0-.25.07-.43.21-.53.14-.1.36-.15.64-.15.3,0,.52.05.65.16.13.11.2.28.2.53v.24c0,.26-.07.45-.21.55-.14.1-.36.15-.66.15ZM341.56,89.32c0,.22-.07.41-.21.56-.14.15-.32.22-.55.22s-.39-.07-.54-.22c-.15-.15-.22-.33-.22-.56v-6.52c0-.22.07-.41.22-.56.15-.15.33-.22.54-.22s.41.07.55.22c.14.15.21.33.21.56v6.52Z"/>
    <path class="cls-4" d="M351.29,86.09c0,.81-.18,1.53-.53,2.15-.36.62-.84,1.11-1.45,1.47-.61.36-1.29.53-2.06.53s-1.45-.18-2.06-.53c-.61-.36-1.09-.84-1.45-1.47-.36-.62-.54-1.34-.54-2.15s.18-1.55.54-2.17c.36-.62.84-1.12,1.45-1.48.61-.36,1.29-.54,2.06-.54s1.45.18,2.06.54c.61.36,1.09.85,1.45,1.48.36.62.53,1.35.53,2.17ZM349.76,86.09c0-.56-.11-1.04-.33-1.45-.22-.41-.53-.74-.91-.97s-.8-.36-1.27-.36-.89.12-1.28.36c-.39.24-.69.56-.91.97-.22.41-.33.9-.33,1.45s.11,1.02.33,1.43c.22.42.53.74.91.97.39.23.81.35,1.28.35s.89-.12,1.27-.35c.38-.23.68-.56.91-.97.22-.42.33-.89.33-1.43Z"/>
    <path class="cls-4" d="M357.13,81.9c.72,0,1.28.15,1.67.45.4.3.67.7.83,1.2.16.5.24,1.06.24,1.68v4.08c0,.22-.07.41-.22.56-.15.15-.33.22-.54.22s-.41-.07-.55-.22c-.14-.15-.21-.33-.21-.56v-4.06c0-.37-.05-.69-.15-.98-.1-.29-.28-.52-.53-.7-.25-.18-.6-.27-1.04-.27-.42,0-.78.09-1.1.27-.31.18-.56.41-.74.7-.18.29-.27.62-.27.98v4.06c0,.22-.07.41-.22.56s-.33.22-.54.22c-.22,0-.41-.07-.55-.22-.14-.15-.21-.33-.21-.56v-6.45c0-.22.07-.41.21-.56.14-.15.32-.22.55-.22s.39.07.54.22c.15.15.22.33.22.56v.85l-.27.15c.07-.22.2-.45.37-.68.18-.23.39-.44.65-.64.25-.2.54-.36.85-.47.31-.12.65-.18,1-.18Z"/>
  </g>
</svg>